# xmcd CD database file
#
# Track frame offsets:
#	150
#	21747
#	34772
#	46325
#	63397
#	75625
#	95165
#	105012
#	122010
#	134325
#	149840
#	165412
#	178892
#	190940
#
# Disc length: 2758 seconds
#
# Revision: 0
# Processed by: cddbd v1.5.2PL0 Copyright (c) Steve Scherf et al.
# Submitted via: CDex 1.70beta1
#
DISCID=c60ac40e
DTITLE=Benny Goodman - Benny's Bop Vol.2
DYEAR=2001
DGENRE=Jazz
TTITLE0=Limehouse Blues
TTITLE1=The Man I Love
TTITLE2=Indiana
TTITLE3=Bye Bye Blues
TTITLE4=Little White Lies
TTITLE5=Mel's Idea
TTITLE6=Limehouse Blues
TTITLE7=Undercurrent Blues
TTITLE8=So In Love
TTITLE9=Shishka Bop
TTITLE10=There's A Small Hotel
TTITLE11=Clarinade
TTITLE12=If I Could Be With You
TTITLE13=Intermezzo
EXTD=YEAR: 2001
EXTT0=
EXTT1=
EXTT2=
EXTT3=
EXTT4=
EXTT5=
EXTT6=
EXTT7=
EXTT8=
EXTT9=
EXTT10=
EXTT11=
EXTT12=
EXTT13=
PLAYORDER=
